<svg xmlns="http://www.w3.org/2000/svg" viewBox="0 0 133 158" width="133" height="158">
  <g transform="translate(0, 158) scale(0.1, -0.1)" fill="#0068a5" stroke="none">
    <path d="M290 1504 c82 -238 60 -485 -55 -623 -33 -39 -43 -33 -51 30 -9 65 -23 59 -52 -21 -146 -407 21 -709 446 -805 88 -20 95 -17 42 20 -136 94 -185 192 -185 365 1 142 14 188 99 335 178 308 110 578 -181 724 -83 41 -85 40 -63 -25z"/>
    <path d="M850 962 c-387 -104 -474 -637 -141 -860 118 -78 303 -100 457 -53 l71 21 5 133 c6 158 7 157 -42 113 -65 -59 -96 -71 -185 -71 -173 0 -279 134 -246 310 36 197 269 271 424 135 25 -22 48 -37 50 -33 3 5 3 68 0 141 l-6 132 -66 21 c-92 30 -236 35 -321 11z"/>
  </g>
</svg>
