<?xml version="1.0" encoding="UTF-8"?>
<svg version="1.1" xmlns="http://www.w3.org/2000/svg" width="133" height="158">
<path d="M0 0 C5.1658155 1.26027519 9.34889312 3.07034372 13.8125 6 C14.71826782 6.59276733 14.71826782 6.59276733 15.64233398 7.19750977 C26.2579539 14.36604303 33.98697044 22.81942921 37.3125 35.375 C40.33596961 52.16553025 34.85614701 66.42455664 27 81 C25.88559726 83.11964987 24.78085948 85.24441931 23.6875 87.375 C23.21699219 88.26960938 22.74648438 89.16421875 22.26171875 90.0859375 C17.45339459 101.19123106 16.76509037 116.65224813 20.5 128.1875 C24.57583145 137.17998129 30.81009714 143.43524158 39.09375 148.625 C39.7228125 149.07875 40.351875 149.5325 41 150 C41 150.66 41 151.32 41 152 C23.52633515 151.53795598 4.80232768 143.70152392 -7.65625 131.609375 C-18.2566605 119.80758464 -20.82454773 105.74490318 -20.18798828 90.34912109 C-19.43647736 80.95816257 -16.92336058 69.08704095 -12 61 C-10.515 60.505 -10.515 60.505 -9 60 C-8.01 63.3 -7.02 66.6 -6 70 C4.12676421 55.96062235 7.03627299 40.70586661 4.3984375 23.64453125 C3.48144064 18.43193998 2.37757814 13.30534155 0.90625 8.21875 C0.07800919 5.27706714 -0.18348347 3.02747728 0 0 Z " fill="#1C9FD3" transform="translate(27,0)"/>
<path d="M0 0 C0 9.57 0 19.14 0 29 C-3.11234157 27.44382922 -5.2295201 26.12488345 -7.875 24 C-14.25824128 19.18910124 -20.1298379 18.22029354 -28 19 C-34.31441992 20.42799602 -39.12591073 23.48325723 -43.2578125 28.5390625 C-47.44990838 35.19364827 -46.76018257 43.46798695 -46 51 C-44.42758107 56.96282459 -41.11249954 60.55889454 -36 64 C-29.65781197 67.32529097 -23.39232455 68.19239485 -16.453125 66.30859375 C-11.24225968 64.42162888 -7.3487395 62.0309874 -3.375 58.171875 C-2 57 -2 57 0 57 C0 66.57 0 76.14 0 86 C-15.36359009 92.82826226 -29.81810053 93.915321 -46 89 C-58.89882921 83.47193034 -68.03177858 74.70335423 -73.375 61.625 C-77.75725196 49.92629259 -77.90433044 35.17337216 -73.2734375 23.546875 C-71.20514611 19.41029222 -68.78615897 15.68442881 -66 12 C-65.38125 11.113125 -64.7625 10.22625 -64.125 9.3125 C-47.56952415 -8.70375313 -21.01688235 -10.50844118 0 0 Z " fill="#0268A4" transform="translate(125,65)"/>
<path d="M0 0 C0.33 0 0.66 0 1 0 C1.08636719 1.03898437 1.17273437 2.07796875 1.26171875 3.1484375 C2.37847949 14.83373931 4.99995961 24.79011305 14 33 C16.62555043 34.92881516 19.28515207 36.75458916 22.0234375 38.51953125 C22.67570312 39.00808594 23.32796875 39.49664062 24 40 C24 40.66 24 41.32 24 42 C6.53468765 41.53817684 -12.19048424 33.70722208 -24.64453125 21.62109375 C-29.01988025 16.75233889 -32.68972221 11.99935198 -33.375 5.375 C-33.25125 4.59125 -33.1275 3.8075 -33 3 C-31.35 2.67 -29.7 2.34 -28 2 C-28 3 -28 4 -28 5 C-27.83958645 6.35492163 -27.67187498 7.70898453 -27.5 9.0625 C-27.335 10.361875 -27.17 11.66125 -27 13 C-26.01 13.33 -25.02 13.66 -24 14 C-24 14.66 -24 15.32 -24 16 C-22.68 16.33 -21.36 16.66 -20 17 C-20.33 18.65 -20.66 20.3 -21 22 C-19.72125 21.814375 -18.4425 21.62875 -17.125 21.4375 C-13.25 20.875 -13.25 20.875 -11 22 C-10.59270772 24.32156597 -10.25561323 26.6568787 -10 29 C-8.68 29 -7.36 29 -6 29 C-6 29.66 -6 30.32 -6 31 C-3.84575944 32.39735818 -3.84575944 32.39735818 -1 33 C2.31180732 31.2371888 2.31180732 31.2371888 5 29 C3.98839152 24.60685207 3.98839152 24.60685207 0.875 21.625 C-0.053125 21.315625 -0.053125 21.315625 -1 21 C-1 20.34 -1 19.68 -1 19 C-1.66 19 -2.32 19 -3 19 C-2.67 18.01 -2.34 17.02 -2 16 C-1.34 16 -0.68 16 0 16 C-0.66 14.35 -1.32 12.7 -2 11 C-1.34 11 -0.68 11 0 11 C0 7.37 0 3.74 0 0 Z " fill="#0A6EA5" transform="translate(44,110)"/>
<path d="M0 0 C5.1658155 1.26027519 9.34889312 3.07034372 13.8125 6 C14.41634521 6.39517822 15.02019043 6.79035645 15.64233398 7.19750977 C26.27738161 14.3791622 34.01905159 22.84622104 37.3125 35.4375 C38.30151516 40.59516787 38.17594535 45.77051321 38 51 C37.67 51 37.34 51 37 51 C37 48.36 37 45.72 37 43 C36.01 43.33 35.02 43.66 34 44 C31.3125 43.5625 31.3125 43.5625 29 43 C29 42.34 29 41.68 29 41 C30.32 40.34 31.64 39.68 33 39 C32.525625 38.67 32.05125 38.34 31.5625 38 C29.14208385 34.90186733 29.31801083 31.87973208 29 28 C28.01 28.33 27.02 28.66 26 29 C26 28.34 26 27.68 26 27 C24.68 26.67 23.36 26.34 22 26 C22.185625 25.05125 22.37125 24.1025 22.5625 23.125 C23.28686632 20.10131207 23.28686632 20.10131207 22 18 C22.33 17.34 22.66 16.68 23 16 C22.01 15.67 21.02 15.34 20 15 C20 14.01 20 13.02 20 12 C18.02 12.33 16.04 12.66 14 13 C14 12.01 14 11.02 14 10 C13.38125 10.20625 12.7625 10.4125 12.125 10.625 C11.42375 10.74875 10.7225 10.8725 10 11 C9.34 10.34 8.68 9.68 8 9 C5.79004885 12.31492672 5.81339435 12.58084308 6.375 16.25 C7.24645502 23.16012567 7.0834151 30.04874129 7 37 C6.67 37 6.34 37 6 37 C5.92483154 36.42145264 5.84966309 35.84290527 5.7722168 35.24682617 C4.02110671 21.02548831 4.02110671 21.02548831 0.55078125 7.15625 C-0.07523492 4.70546328 -0.09314222 2.51927539 0 0 Z " fill="#86D2EF" transform="translate(27,0)"/>
<path d="M0 0 C3.44260084 -0.49180012 4.71620517 -0.20765475 7.5625 1.875 C13.00650909 8.85449883 15.16803729 17.05290532 15.0625 25.8125 C15.05347656 26.78832031 15.04445313 27.76414062 15.03515625 28.76953125 C15.02355469 29.50558594 15.01195313 30.24164063 15 31 C14.67 31 14.34 31 14 31 C14 28.36 14 25.72 14 23 C13.01 23.33 12.02 23.66 11 24 C8.3125 23.5625 8.3125 23.5625 6 23 C6 22.34 6 21.68 6 21 C7.32 20.34 8.64 19.68 10 19 C9.525625 18.67 9.05125 18.34 8.5625 18 C6.14208385 14.90186733 6.31801083 11.87973208 6 8 C5.01 8.33 4.02 8.66 3 9 C3 8.34 3 7.68 3 7 C1.68 6.67 0.36 6.34 -1 6 C-0.67 4.02 -0.34 2.04 0 0 Z " fill="#47BBE1" transform="translate(50,20)"/>
<path d="M0 0 C0.66 0 1.32 0 2 0 C2 9.57 2 19.14 2 29 C-8.65438125 33.73528056 -17.44760496 35.46005113 -29 35 C-29 34.67 -29 34.34 -29 34 C-28.40461426 33.92483154 -27.80922852 33.84966309 -27.19580078 33.7722168 C-24.5035401 33.42444674 -21.81446436 33.05624648 -19.125 32.6875 C-17.71927734 32.51057617 -17.71927734 32.51057617 -16.28515625 32.33007812 C-15.38925781 32.20439453 -14.49335937 32.07871094 -13.5703125 31.94921875 C-12.32918701 31.78425903 -12.32918701 31.78425903 -11.06298828 31.6159668 C-8.62323681 31.12664077 -8.62323681 31.12664077 -7 28 C-4.69 28 -2.38 28 0 28 C-0.33 20.74 -0.66 13.48 -1 6 C-2.65 6.33 -4.3 6.66 -6 7 C-6 7.66 -6 8.32 -6 9 C-8.31 9.33 -10.62 9.66 -13 10 C-10.96678062 8.47394321 -8.93237612 6.94956438 -6.89453125 5.4296875 C-6.20746094 4.91664062 -5.52039063 4.40359375 -4.8125 3.875 C-4.11769531 3.35679688 -3.42289063 2.83859375 -2.70703125 2.3046875 C-1.06593783 1.11007661 -1.06593783 1.11007661 0 0 Z " fill="#1D6A99" transform="translate(123,122)"/>
<path d="M0 0 C0.66 0.99 1.32 1.98 2 3 C1.54109375 3.75023438 1.0821875 4.50046875 0.609375 5.2734375 C-0.00421875 6.29695313 -0.6178125 7.32046875 -1.25 8.375 C-1.85328125 9.37273437 -2.4565625 10.37046875 -3.078125 11.3984375 C-7.59943684 19.53914146 -9.70395249 27.40747548 -10.75 36.625 C-10.87503906 37.62917969 -11.00007813 38.63335937 -11.12890625 39.66796875 C-11.43134978 42.11078187 -11.72148876 44.55436332 -12 47 C-14.02350324 43.96474514 -14.32124018 42.80573798 -14.625 39.3125 C-14.69976562 38.50425781 -14.77453125 37.69601563 -14.8515625 36.86328125 C-14.90054688 36.24839844 -14.94953125 35.63351563 -15 35 C-14.34 35 -13.68 35 -13 35 C-13.144375 34.38511719 -13.28875 33.77023438 -13.4375 33.13671875 C-13.623125 32.32847656 -13.80875 31.52023438 -14 30.6875 C-14.2784375 29.48673828 -14.2784375 29.48673828 -14.5625 28.26171875 C-15.18082343 25.06520746 -15.03598162 23.10794485 -14 20 C-13.01 20.33 -12.02 20.66 -11 21 C-10.67 20.34 -10.34 19.68 -10 19 C-9.34 19 -8.68 19 -8 19 C-8 17.35 -8 15.7 -8 14 C-7.34 14 -6.68 14 -6 14 C-6.185625 13.2575 -6.37125 12.515 -6.5625 11.75 C-6.99203108 9.05009037 -6.85122974 7.55368923 -6 5 C-4.02 4.67 -2.04 4.34 0 4 C0 2.68 0 1.36 0 0 Z " fill="#2D8AB1" transform="translate(56,71)"/>
<path d="M0 0 C0.66 0.33 1.32 0.66 2 1 C2.02703562 3.58340384 2.04685611 6.16652308 2.0625 8.75 C2.07087891 9.47960937 2.07925781 10.20921875 2.08789062 10.9609375 C2.10398277 14.50120909 1.87733071 17.58933282 1 21 C1.08816364 23.1421654 1.08816364 23.1421654 1.4375 25.25 C1.623125 26.4875 1.80875 27.725 2 29 C2.99 29.33 3.98 29.66 5 30 C4.67 31.32 4.34 32.64 4 34 C3.34 34 2.68 34 2 34 C2 35.65 2 37.3 2 39 C-4.21571557 29.67642664 -3.118567 14.56060026 -1 3.9375 C-0.68447139 2.62060628 -0.35928975 1.30563327 0 0 Z " fill="#268EB3" transform="translate(9,78)"/>
<path d="M0 0 C0.33 0 0.66 0 1 0 C0.125 6.875 0.125 6.875 -1 8 C-3.7350546 23.10140863 -3.09364303 38.70330074 5 52 C4.67 52.66 4.34 53.32 4 54 C-4.50308315 41.06650783 -6.51615585 29.33918348 -5 14 C-3.89226543 9.03016381 -2.27211345 4.5442269 0 0 Z " fill="#2071A0" transform="translate(54,84)"/>
<path d="M0 0 C0.33 0 0.66 0 1 0 C2.10424872 4.41699488 2.15088074 8.47357775 2 13 C1.67 13.33 1.34 13.66 1 14 C0.79231771 15.47396739 0.63283983 16.9549126 0.5 18.4375 C0.10958904 22.78082192 0.10958904 22.78082192 -1 25 C-1.66 25 -2.32 25 -3 25 C-3 26.98 -3 28.96 -3 31 C-2.34 31 -1.68 31 -1 31 C-2 34 -2 34 -5 35.5625 C-5.99 36.036875 -6.98 36.51125 -8 37 C-8.33 37.66 -8.66 38.32 -9 39 C-9.66 38.67 -10.32 38.34 -11 38 C-10.54109375 37.2678125 -10.0821875 36.535625 -9.609375 35.78125 C-3.20752863 24.48387406 -1.64932322 12.75749153 0 0 Z " fill="#4DBDE0" transform="translate(34,30)"/>
<path d="M0 0 C6.875 1.875 6.875 1.875 8 3 C8.08775605 5.14558827 8.10695219 7.29404421 8.09765625 9.44140625 C8.09443359 10.74658203 8.09121094 12.05175781 8.08789062 13.39648438 C8.07953401 14.7851569 8.07106905 16.17382877 8.0625 17.5625 C8.05748666 18.95507656 8.05292347 20.34765481 8.04882812 21.74023438 C8.03699434 25.1601987 8.0205088 28.58007844 8 32 C4.23511958 30.27845212 1.84936103 28.00765886 -1 25 C0.98 24.67 2.96 24.34 5 24 C5 17.4 5 10.8 5 4 C2.525 3.01 2.525 3.01 0 2 C0 1.34 0 0.68 0 0 Z " fill="#1F6C9D" transform="translate(117,62)"/>
<path d="M0 0 C0 1 0 2 0 3 C0.16041355 4.35492163 0.32812502 5.70898453 0.5 7.0625 C0.665 8.361875 0.83 9.66125 1 11 C1.99 11.33 2.98 11.66 4 12 C4 12.66 4 13.32 4 14 C5.32 14.33 6.64 14.66 8 15 C7.67 16.65 7.34 18.3 7 20 C6.608125 19.566875 6.21625 19.13375 5.8125 18.6875 C4.03311563 16.87723645 4.03311563 16.87723645 1.5625 15.75 C-1.841517 13.42530547 -3.52249319 10.82698486 -5 7 C-5.25 3.5625 -5.25 3.5625 -5 1 C-2 0 -2 0 0 0 Z " fill="#117BA9" transform="translate(16,112)"/>
<path d="M0 0 C0.33 0 0.66 0 1 0 C1.08636719 1.03898437 1.17273437 2.07796875 1.26171875 3.1484375 C2.08811048 11.75530734 3.45624277 18.48532457 8 26 C8.67763266 27.32779373 9.34786461 28.65949948 10 30 C7.625 29.3125 7.625 29.3125 5 28 C4.29788106 26.34795544 3.63028587 24.68076231 3 23 C0.98264795 21.65589738 0.98264795 21.65589738 -1 21 C-1 20.34 -1 19.68 -1 19 C-1.66 19 -2.32 19 -3 19 C-2.505 17.515 -2.505 17.515 -2 16 C-1.34 16 -0.68 16 0 16 C-0.66 14.35 -1.32 12.7 -2 11 C-1.34 11 -0.68 11 0 11 C0 7.37 0 3.74 0 0 Z " fill="#1B769F" transform="translate(44,110)"/>
<path d="M0 0 C0.66 0 1.32 0 2 0 C2.99 3.3 3.98 6.6 5 10 C5.66 9.67 6.32 9.34 7 9 C6.67 9.99 6.34 10.98 6 12 C4.68 12 3.36 12 2 12 C2 11.01 2 10.02 2 9 C0.68 9 -0.64 9 -2 9 C-2.28875 9.94875 -2.5775 10.8975 -2.875 11.875 C-4 15 -4 15 -6 17 C-4.89061647 10.69403048 -3.06802099 5.62470514 0 0 Z " fill="#40A0B9" transform="translate(16,60)"/>
<path d="M0 0 C0.33 0 0.66 0 1 0 C1.02578125 1.0621875 1.0515625 2.124375 1.078125 3.21875 C1.43232189 13.14095415 2.38108435 20.05730122 9 28 C6.525 27.01 6.525 27.01 4 26 C4 25.01 4 24.02 4 23 C3.36578125 22.76667969 2.7315625 22.53335938 2.078125 22.29296875 C0 21 0 21 -0.828125 18.86328125 C-3.13720718 4.90188622 -3.13720718 4.90188622 0 0 Z " fill="#206B99" transform="translate(77,100)"/>
<path d="M0 0 C2.1875 -0.3125 2.1875 -0.3125 5 0 C9.03958935 3.19409391 10.731152 6.03995781 12 11 C11.34 10.67 10.68 10.34 10 10 C10 9.01 10 8.02 10 7 C7.61435923 7.57584432 5.33317216 8.22227595 3 9 C3 8.34 3 7.68 3 7 C1.68 6.67 0.36 6.34 -1 6 C-0.67 4.02 -0.34 2.04 0 0 Z " fill="#61CCF5" transform="translate(50,20)"/>
<path d="M0 0 C8.3150358 4.6372315 8.3150358 4.6372315 11 7 C11 7.66 11 8.32 11 9 C1.83404773 8.75763107 -6.39678442 5.89264444 -15 3 C-10.97111077 1.77755925 -8.98043171 2.62215825 -5 4 C-2.3360215 4.44239354 0.31160165 4.72188983 3 5 C2.505 4.54625 2.01 4.0925 1.5 3.625 C0 2 0 2 0 0 Z " fill="#196A94" transform="translate(57,143)"/>
<path d="M0 0 C0.66 0.99 1.32 1.98 2 3 C1.51789062 3.81984375 1.03578125 4.6396875 0.5390625 5.484375 C-0.09257813 6.56203125 -0.72421875 7.6396875 -1.375 8.75 C-2.00148438 9.81734375 -2.62796875 10.8846875 -3.2734375 11.984375 C-4.59772663 14.29738678 -5.84636846 16.59951417 -7 19 C-7.33 19 -7.66 19 -8 19 C-8 17.35 -8 15.7 -8 14 C-7.34 14 -6.68 14 -6 14 C-6.185625 13.2575 -6.37125 12.515 -6.5625 11.75 C-6.99203108 9.05009037 -6.85122974 7.55368923 -6 5 C-4.02 4.67 -2.04 4.34 0 4 C0 2.68 0 1.36 0 0 Z " fill="#1D97C2" transform="translate(56,71)"/>
<path d="M0 0 C0.33 0 0.66 0 1 0 C0.67 3.63 0.34 7.26 0 11 C0.66 11 1.32 11 2 11 C1 14 1 14 -2 15.5625 C-2.99 16.036875 -3.98 16.51125 -5 17 C-5.33 17.66 -5.66 18.32 -6 19 C-6.66 18.67 -7.32 18.34 -8 18 C-7.50628906 17.03578125 -7.01257813 16.0715625 -6.50390625 15.078125 C-5.85655763 13.80219148 -5.20943401 12.52614379 -4.5625 11.25 C-4.07426758 10.29867187 -4.07426758 10.29867187 -3.57617188 9.328125 C-2.02936335 6.26640092 -0.6084922 3.39384379 0 0 Z " fill="#32ABD2" transform="translate(31,50)"/>
<path d="M0 0 C0.99 0 1.98 0 3 0 C3.33 0.99 3.66 1.98 4 3 C4.66 3.66 5.32 4.32 6 5 C5.67 5.99 5.34 6.98 5 8 C5 9.32 5 10.64 5 12 C3.0625 11.625 3.0625 11.625 1 11 C-0.20272819 8.59454362 -0.10071472 7.05003047 -0.0625 4.375 C-0.05347656 3.55773437 -0.04445312 2.74046875 -0.03515625 1.8984375 C-0.02355469 1.27195312 -0.01195312 0.64546875 0 0 Z " fill="#48C8F1" transform="translate(57,27)"/>
<path d="M0 0 C0.66 0.66 1.32 1.32 2 2 C1.625 4.625 1.625 4.625 1 7 C0.34 7 -0.32 7 -1 7 C-1.268125 7.969375 -1.53625 8.93875 -1.8125 9.9375 C-2.204375 10.948125 -2.59625 11.95875 -3 13 C-3.99 13.33 -4.98 13.66 -6 14 C-5.34 10.37 -4.68 6.74 -4 3 C-3.01 2.67 -2.02 2.34 -1 2 C-0.67 1.34 -0.34 0.68 0 0 Z " fill="#20B0DE" transform="translate(63,50)"/>
<path d="M0 0 C4.10447392 0.51776621 5.95699523 2.64627444 8.75 5.5625 C9.94882812 6.80193359 9.94882812 6.80193359 11.171875 8.06640625 C11.77515625 8.70449219 12.3784375 9.34257812 13 10 C12.67 10.66 12.34 11.32 12 12 C11.34 11.34 10.68 10.68 10 10 C8.68 10 7.36 10 6 10 C6 9.34 6 8.68 6 8 C5.34 7.67 4.68 7.34 4 7 C4.33 6.34 4.66 5.68 5 5 C4.01 4.67 3.02 4.34 2 4 C2 3.01 2 2.02 2 1 C1.34 0.67 0.68 0.34 0 0 Z " fill="#78C7E2" transform="translate(45,11)"/>
<path d="M0 0 C2.83359844 -0.05449228 5.66612485 -0.09390733 8.5 -0.125 C9.29148437 -0.14175781 10.08296875 -0.15851562 10.8984375 -0.17578125 C16.27998079 -0.21989226 20.82999927 0.49405942 26 2 C24.4375 3.125 24.4375 3.125 22 4 C20.9584375 3.7009375 19.916875 3.401875 18.84375 3.09375 C14.82651894 1.95063547 11.22602817 1.59607229 7.0625 1.375 C6.37865234 1.33632813 5.69480469 1.29765625 4.99023438 1.2578125 C3.32720487 1.16477588 1.66364153 1.08136213 0 1 C0 0.67 0 0.34 0 0 Z " fill="#246A95" transform="translate(90,59)"/>
<path d="M0 0 C1.32 0.33 2.64 0.66 4 1 C4.33 2.32 4.66 3.64 5 5 C0.25 7.875 0.25 7.875 -2 9 C-2 6.69 -2 4.38 -2 2 C-1.34 2 -0.68 2 0 2 C0 1.34 0 0.68 0 0 Z " fill="#079ACE" transform="translate(12,77)"/>
<path d="M0 0 C0 1.65 0 3.3 0 5 C-1.32 5 -2.64 5 -4 5 C-4.28875 5.94875 -4.5775 6.8975 -4.875 7.875 C-6 11 -6 11 -8 13 C-7.68950274 11.56206608 -7.3765224 10.1246682 -7.0625 8.6875 C-6.88847656 7.88699219 -6.71445313 7.08648437 -6.53515625 6.26171875 C-6 4 -6 4 -5 1 C-2 0 -2 0 0 0 Z " fill="#31A1C6" transform="translate(18,64)"/>
<path d="M0 0 C2.64 0 5.28 0 8 0 C8 0.66 8 1.32 8 2 C9.32 2.33 10.64 2.66 12 3 C12 3.99 12 4.98 12 6 C10.55903414 5.57405412 9.12231288 5.13373367 7.6875 4.6875 C6.88699219 4.44386719 6.08648437 4.20023438 5.26171875 3.94921875 C2.90035427 2.95817977 1.66120007 1.91925057 0 0 Z " fill="#1A6D99" transform="translate(30,139)"/>
<path d="M0 0 C0.99 0.33 1.98 0.66 3 1 C2.236875 1.86625 1.47375 2.7325 0.6875 3.625 C-1.75220073 6.53600655 -3.42998277 9.52943561 -5 13 C-5.33 13 -5.66 13 -6 13 C-6 10.69 -6 8.38 -6 6 C-5.34 6 -4.68 6 -4 6 C-3.67 5.01 -3.34 4.02 -3 3 C-2.34 3 -1.68 3 -1 3 C-0.67 2.01 -0.34 1.02 0 0 Z " fill="#206E98" transform="translate(84,87)"/>
<path d="M0 0 C0.66 0 1.32 0 2 0 C3.05619003 4.28297531 3.11702092 8.42985646 3.0625 12.8125 C3.05798828 13.50537109 3.05347656 14.19824219 3.04882812 14.91210938 C3.03713156 16.60811068 3.01919924 18.30406703 3 20 C2.67 20 2.34 20 2 20 C1.34 13.4 0.68 6.8 0 0 Z " fill="#74C5DE" transform="translate(31,17)"/>
<path d="M0 0 C0.45375 0.474375 0.9075 0.94875 1.375 1.4375 C3.68141236 3.65520419 5.89458559 3.65495395 9 4 C9 4.33 9 4.66 9 5 C3.06997733 5.37851209 -1.47239641 4.10575375 -7 2 C-4 0 -4 0 0 0 Z " fill="#1B6896" transform="translate(84,151)"/>
<path d="M0 0 C0 1 0 2 0 3 C0.32759934 5.33414529 0.66073053 7.66752239 1 10 C0.01 10 -0.98 10 -2 10 C-2 8.68 -2 7.36 -2 6 C-2.99 6 -3.98 6 -5 6 C-5 4.35 -5 2.7 -5 1 C-2 0 -2 0 0 0 Z " fill="#0780B7" transform="translate(16,112)"/>
<path d="M0 0 C1.32 0.66 2.64 1.32 4 2 C3.34 5.3 2.68 8.6 2 12 C1.34 12 0.68 12 0 12 C-1.39130435 4.17391304 -1.39130435 4.17391304 0 0 Z " fill="#098DC2" transform="translate(42,91)"/>
<path d="M0 0 C1.89492187 0.01353516 1.89492187 0.01353516 3.828125 0.02734375 C4.79234375 0.03894531 5.7565625 0.05054687 6.75 0.0625 C6.75 0.3925 6.75 0.7225 6.75 1.0625 C5.79738281 1.19527344 4.84476563 1.32804687 3.86328125 1.46484375 C1.98189453 1.72974609 1.98189453 1.72974609 0.0625 2 C-1.79955078 2.26103516 -1.79955078 2.26103516 -3.69921875 2.52734375 C-6.57474548 2.96072897 -9.40644813 3.45899282 -12.25 4.0625 C-11.92 3.0725 -11.59 2.0825 -11.25 1.0625 C-7.70622246 -0.44274531 -3.78293864 -0.03502721 0 0 Z " fill="#1D6D9B" transform="translate(100.25,81.9375)"/>
<path d="M0 0 C0.33 0 0.66 0 1 0 C1.33 2.64 1.66 5.28 2 8 C2.99 8.33 3.98 8.66 5 9 C4.6875 10.9375 4.6875 10.9375 4 13 C3.01 13.33 2.02 13.66 1 14 C0.63659714 12.23103898 0.28459117 10.45973374 -0.0625 8.6875 C-0.25972656 7.70136719 -0.45695313 6.71523437 -0.66015625 5.69921875 C-1 3 -1 3 0 0 Z " fill="#0F88BD" transform="translate(9,99)"/>
<path d="M0 0 C0.99 0 1.98 0 3 0 C2.67 1.98 2.34 3.96 2 6 C0.02 6.33 -1.96 6.66 -4 7 C-2.79618552 4.50638429 -1.54571278 2.31856917 0 0 Z " fill="#0EA2D5" transform="translate(54,69)"/>
<path d="M0 0 C0.33 0.66 0.66 1.32 1 2 C0.01 3.485 0.01 3.485 -1 5 C-1.99 5 -2.98 5 -4 5 C-4 5.66 -4 6.32 -4 7 C-6.31 7.33 -8.62 7.66 -11 8 C-7.38813161 5.25498003 -3.69604737 2.62987986 0 0 Z " fill="#266797" transform="translate(121,124)"/>
<path d="M0 0 C0.33 0 0.66 0 1 0 C2.13016601 5.02296004 1.77916092 8.97874074 1 14 C-1.02350324 10.96474514 -1.32124018 9.80573798 -1.625 6.3125 C-1.69976562 5.50425781 -1.77453125 4.69601563 -1.8515625 3.86328125 C-1.90054688 3.24839844 -1.94953125 2.63351563 -2 2 C-1.34 2 -0.68 2 0 2 C0 1.34 0 0.68 0 0 Z " fill="#108ABF" transform="translate(43,104)"/>
<path d="M0 0 C3.4375 0.8125 3.4375 0.8125 7 2 C7.33 2.99 7.66 3.98 8 5 C6.68 5 5.36 5 4 5 C4 4.34 4 3.68 4 3 C2.02 3.99 2.02 3.99 0 5 C0 3.35 0 1.7 0 0 Z " fill="#97D3E3" transform="translate(27,0)"/>
<path d="M0 0 C3.465 1.98 3.465 1.98 7 4 C7 4.66 7 5.32 7 6 C4.03 5.67 1.06 5.34 -2 5 C-0.68 4.34 0.64 3.68 2 3 C1.34 2.67 0.68 2.34 0 2 C0 1.34 0 0.68 0 0 Z " fill="#256887" transform="translate(61,146)"/>
<path d="M0 0 C0.33 0 0.66 0 1 0 C0.46148032 5.27749285 -0.77343836 9.25645564 -3 14 C-4.37095624 10.30962722 -3.60010967 8.29116165 -2.0625 4.75 C-1.68222656 3.85796875 -1.30195312 2.9659375 -0.91015625 2.046875 C-0.60980469 1.37140625 -0.30945312 0.6959375 0 0 Z " fill="#296C9A" transform="translate(54,84)"/>
<path d="M0 0 C3.21029714 1.10699901 4.00968977 2.01603825 5.8125 5 C6.204375 5.99 6.59625 6.98 7 8 C6.67 8.66 6.34 9.32 6 10 C5.67 8.68 5.34 7.36 5 6 C3.68 5.67 2.36 5.34 1 5 C1 4.01 1 3.02 1 2 C0.34 1.67 -0.32 1.34 -1 1 C-0.67 0.67 -0.34 0.34 0 0 Z " fill="#60C9E1" transform="translate(55,21)"/>
<path d="M0 0 C0.33 0 0.66 0 1 0 C0.88557539 1.60495567 0.75805306 3.20898119 0.625 4.8125 C0.55539063 5.70582031 0.48578125 6.59914063 0.4140625 7.51953125 C0 10 0 10 -2 13 C-2.66 13 -3.32 13 -4 13 C-3.79503906 12.39671875 -3.59007813 11.7934375 -3.37890625 11.171875 C-2.97478516 9.97304688 -2.97478516 9.97304688 -2.5625 8.75 C-2.29566406 7.96109375 -2.02882813 7.1721875 -1.75390625 6.359375 C-1.08045292 4.25178012 -0.50849405 2.15246027 0 0 Z " fill="#4FAAC1" transform="translate(31,50)"/>
<path d="M0 0 C0.556875 0.28875 1.11375 0.5775 1.6875 0.875 C4.08494645 2.0413253 6.51596939 3.0339881 9 4 C9 4.99 9 5.98 9 7 C4.58110387 5.64978174 2.65654657 3.73884332 0 0 Z " fill="#1A6C97" transform="translate(64,143)"/>
<path d="M0 0 C0.66 0.66 1.32 1.32 2 2 C1.625 4.625 1.625 4.625 1 7 C0.34 7 -0.32 7 -1 7 C-1.33 7.66 -1.66 8.32 -2 9 C-2.6875 6.75 -2.6875 6.75 -3 4 C-1.5625 1.6875 -1.5625 1.6875 0 0 Z " fill="#2EB9DA" transform="translate(63,50)"/>
<path d="M0 0 C2.0625 1.5625 2.0625 1.5625 4 4 C3.75 7.75 3.75 7.75 3 11 C0.87953208 7.46588679 0.46800711 4.05606165 0 0 Z " fill="#8BCBE2" transform="translate(28,5)"/>
<path d="M0 0 C0.66 0 1.32 0 2 0 C3.35439668 2.70879335 3.06501451 5.00933268 3 8 C1.68 8 0.36 8 -1 8 C-0.67 7.01 -0.34 6.02 0 5 C0.66 5 1.32 5 2 5 C1.34 3.35 0.68 1.7 0 0 Z " fill="#0779B4" transform="translate(42,121)"/>
<path d="M0 0 C1.46726798 3.81489674 0.43336419 6.29011622 -1 10 C-1.33 10 -1.66 10 -2 10 C-2.25 3.375 -2.25 3.375 0 0 Z " fill="#41A5BF" transform="translate(62,57)"/>
</svg>
