<?xml version="1.0" encoding="UTF-8" standalone="no"?>
<!-- Created with Inkscape (http://www.inkscape.org/) -->

<svg
   width="700"
   height="345.298"
   viewBox="0 0 185.20833 91.360096"
   version="1.1"
   id="svg1"
   xml:space="preserve"
   xmlns="http://www.w3.org/2000/svg"
   xmlns:svg="http://www.w3.org/2000/svg"><defs
     id="defs1" /><path
     style="fill:#00175f;fill-opacity:1;stroke-width:0.458131"
     d="M 17.391637,0.66874115 H 34.616644 L 17.275643,90.184891 H 0 Z"
     id="path3" /><path
     style="fill:#00175f;fill-opacity:1;stroke-width:0.458131"
     d="m 142.35932,91.276789 c -15.09059,-0.82999 -24.74025,-6.808443 -28.84685,-17.872108 -3.35172,-9.029955 -2.63294,-22.279034 1.93579,-35.682175 4.1662,-12.222189 11.0821,-21.903967 20.34067,-28.4755158 10.63691,-7.5498608 24.07211,-10.5114203 39.72363,-8.75638321 3.97743,0.44599895 9.69577,1.63212071 9.69577,2.01114101 0,0.2366929 -4.7272,15.355616 -4.83774,15.472462 -0.0486,0.05128 -0.32991,0.0067 -0.62528,-0.09916 -2.13254,-0.764032 -7.40313,-1.812523 -10.93445,-2.175219 -7.65343,-0.786065 -13.44619,0.0097 -18.51205,2.542992 -3.18626,1.593372 -5.20693,3.085718 -7.82015,5.775478 -10.74085,11.055464 -12.61611,30.057583 -10.5404,38.564195 5.34035,21.158159 36.37035,10.303735 38.39825,9.436925 0.52772,-0.225561 -0.91892,15.322991 -1.02405,15.387974 -0.36073,0.222935 -13.57201,4.605328 -26.95314,3.869375 z"
     id="path2" /><path
     style="fill:#00175f;fill-opacity:1;stroke-width:0.458131"
     d="M 69.393137,91.260599 C 56.062478,90.568955 40.654571,85.145197 38.786502,64.245185 38.067714,56.20337 39.903327,39.75183 48.005055,25.881074 56.135586,11.961004 68.454272,3.3766065 83.994967,0.80114077 98.273488,-1.5651473 112.48017,2.1301672 112.48017,2.4300455 c 0,0.130984 -4.81202,15.5154115 -4.87164,15.5750275 -0.0642,0.0643 -0.85851,-0.256245 -3.4921,-0.905398 -7.22902,-1.781869 -14.975168,-2.176961 -20.363889,-1.038654 -8.496227,1.79473 -15.573271,7.618494 -20.077868,16.522263 -4.267143,8.43442 -9.407121,28.630344 -0.22654,37.783191 8.510677,8.484952 25.961824,4.753861 33.079634,2.041669 0.592961,-0.225946 1.097215,-0.391706 1.120578,-0.368354 0.0448,0.0448 -0.936714,15.270475 -0.988392,15.332635 -0.06519,0.07838 -3.249356,1.025042 -4.967917,1.476962 -9.675721,2.54436 -17.765575,2.646315 -22.298899,2.411107 z"
     id="path1" /></svg>
