<?xml version="1.0" encoding="UTF-8" standalone="no"?>
<svg
   id="Layer_1"
   data-name="Layer 1"
   viewBox="0 0 500.00001 199.89987"
   version="1.1"
   sodipodi:docname="Pan_American_Energy_logo.svg"
   width="500"
   height="199.89987"
   inkscape:version="1.1.1 (3bf5ae0d25, 2021-09-20)"
   xmlns:inkscape="http://www.inkscape.org/namespaces/inkscape"
   xmlns:sodipodi="http://sodipodi.sourceforge.net/DTD/sodipodi-0.dtd"
   xmlns="http://www.w3.org/2000/svg"
   xmlns:svg="http://www.w3.org/2000/svg">
  <sodipodi:namedview
     id="namedview912"
     pagecolor="#ffffff"
     bordercolor="#666666"
     borderopacity="1.0"
     inkscape:pageshadow="2"
     inkscape:pageopacity="0.0"
     inkscape:pagecheckerboard="0"
     showgrid="false"
     inkscape:zoom="0.59096421"
     inkscape:cx="347.73679"
     inkscape:cy="-0.84607492"
     inkscape:window-width="1366"
     inkscape:window-height="705"
     inkscape:window-x="-8"
     inkscape:window-y="-8"
     inkscape:window-maximized="1"
     inkscape:current-layer="Layer_1" />
  <defs
     id="defs871">
    <style
       id="style869">.cls-1{fill:#00623a;}.cls-2{fill:#043f85;}.cls-3{fill:#e02520;}</style>
  </defs>
  <title
     id="title873">0</title>
  <g
     id="g1149"
     transform="scale(0.70066283)">
    <path
       class="cls-1"
       d="m 113.21,177.79109 v -67.91 c 0,-5.57 -0.15,-9.57 -1.28,-12.709997 h 56.46 v 14.829997 c -3.12,-1.13 -5.25,-1 -8.66,-1 h -22.88 v 22.5 h 15.35 c 3.26,0 5.68,0.14 7.38,-0.57 v 14.13 a 36.9,36.9 0 0 0 -7.1,-0.28 h -15.63 v 29.74 h 14.49 c 19.89,0 21.46,-0.85 24.87,-2.26 l -3.55,16.24 h -60.74 c 1.14,-3.14 1.29,-7.14 1.29,-12.71 z"
       id="path875" />
    <path
       class="cls-1"
       d="m 186.38,177.65109 v -67.91 c 0,-5.43 -0.15,-9.43 -1.28,-12.569997 h 18.33 l 52,58.999997 V 97.171093 h 18 c -1.14,3.139997 -1.28,7.139997 -1.28,12.849997 v 80.48 h -17.31 l -51.84,-58.55 v 58.55 h -17.9 c 1.13,-3.14 1.28,-7.14 1.28,-12.85 z"
       id="path877" />
    <path
       class="cls-1"
       d="m 287.92,177.79109 v -67.91 c 0,-5.57 -0.15,-9.57 -1.28,-12.709997 h 56.46 v 14.829997 c -3.12,-1.13 -5.25,-1 -8.67,-1 h -22.84 v 22.5 h 15.33 c 3.26,0 5.68,0.14 7.38,-0.57 v 14.13 a 36.9,36.9 0 0 0 -7.1,-0.28 h -15.61 v 29.74 h 14.49 c 19.89,0 21.46,-0.85 24.87,-2.26 l -3.56,16.24 h -60.72 c 1.13,-3.14 1.25,-7.14 1.25,-12.71 z"
       id="path879" />
    <path
       class="cls-1"
       d="m 360.04,177.79109 v -67.91 c 0,-5.57 -0.14,-9.57 -1.28,-12.709997 h 38.34 c 21.57,0 32.88,9.849997 32.88,22.759997 a 24.5,24.5 0 0 1 -17.39,23.37 c 16.26,24.61 21.23,33.95 36.29,47.23 h -17.19 c -7.93,0 -14.58,-1.43 -18.25,-7.14 -7.07,-11.09 -18.33,-28.49 -26.47,-41.36 13.56,-2.13 18.41,-10 18.13,-18.53 -0.28,-8.53 -6.85,-13 -16,-13 h -5.42 v 80 h -24.92 c 1.16,-3.14 1.28,-7.14 1.28,-12.71 z"
       id="path881" />
    <path
       class="cls-1"
       d="m 531.19,142.88109 v 36.81 a 28.4,28.4 0 0 0 0.57,6.85 c -12.54,3.43 -23.22,5.57 -34.19,5.57 -34.57,0 -56.77,-19.24 -56.77,-47.81 0,-30.56 23.18,-50.089997 55.78,-50.089997 a 73.42,73.42 0 0 1 24.64,4 l -5.56,16.239997 c -7.41,-4.26 -14,-6.25 -22.21,-6 -15.95,0.42 -27.48,13.07 -27.48,34.67 0,19.9 12.52,35.82 28.9,35.82 6.26,0 8.26,-1.14 12.67,-3 v -20.56 c -0.14,-5.4 -0.28,-9.38 -1.42,-12.5 z"
       id="path883" />
    <path
       class="cls-1"
       d="m 577.17,134.50109 22.75,-37.329997 h 18.61 l -33,52.469997 v 26 c 0,7.13 0.14,11.27 1.28,14.84 h -25.89 c 1.14,-3.57 1.14,-7.57 1.14,-14.69 v -26.6 l -22.14,-38.17 c -7.24,-11 -6.82,-11.279997 -9.8,-13.849997 h 28 z"
       id="path885" />
    <path
       class="cls-2"
       d="m 48.17,63.741093 v -51.37 c 0,-4.1899997 -0.11,-7.1999997 -1,-9.5699997 h 28 c 16.43,0 26,8.0599997 26,18.9999997 0,11.77 -7.83,21.4 -23.51,21.4 -2.9,0 -6.88,-0.53 -9.35,-2.46 10.43,-1.28 14.41,-8.35 14.41,-15.3 0,-6.32 -3.87,-12.74 -12.47,-12.74 h -4.31 v 51.05 c 0,4.2 0.11,7.21 1,9.57 H 47.2 c 0.86,-2.37 0.97,-5.38 0.97,-9.58 z"
       id="path887" />
    <path
       class="cls-2"
       d="m 122.58,66.011093 c -4.09,0 -8.4,-2.14 -8.4,-7.82 0,-5.35 3.77,-7.06 7.65,-8 3,-0.75 5.81,-0.54 8.07,-0.75 v 13.7 a 10.88,10.88 0 0 1 -7.32,2.87 z m 24.25,7.3 c -0.86,-2.36 -1,-5.37 -1,-9.55 v -24.72 c 0,-13 -9.75,-16.42 -22.42,-16.42 -3.88,0 -8.5,0.43 -15.79,3 l -3.64,11.48 c 5.89,-4.17 13,-5.46 18.89,-5.46 4.42,0 6.89,2.57 7,5.89 v 4.77 l -7.64,0.21 c -9.68,0.32 -23.61,4.93 -23.61,15.63 0,8.35 4.82,16.62 20.48,16.62 1.73,-0.11 7.54,-0.54 11.09,-4.51 v 3.05 z"
       id="path889" />
    <path
       class="cls-2"
       d="m 153.81,73.301093 c 0.86,-2.36 1,-5.37 1,-9.57 v -29 c -0.11,-4 -0.21,-7 -1.07,-9.34 l 16.18,-3.2 h 0.54 v 6.77 c 2.26,-4.08 8.5,-6.34 13.13,-6.34 6.44,0 12.33,1.51 16.62,7.31 3.21,4.29 3.11,10.92 3.11,16 v 17.76 c 0,4.3 0.1,7.31 1,9.67 h -17 v -27.48 c 0,-11.45 -3.88,-13.59 -8.29,-13.59 -4,0 -8.07,2.47 -8.07,10.27 v 30.74 h -17 z"
       id="path891" />
    <path
       class="cls-2"
       d="m 269.57,39.871093 h -16.51 l 8.26,-24.93 z m 25.53,22.48 c -4.4,-11.54 -13.62,-38 -21.45,-59.5499997 h -18.73 c -19.2,51.7499997 -24.67,67.4999997 -27,70.5099997 h 14.3 l 7.41,-22.61 h 23.16 l 7.94,22.6 h 19.73 c -1.54,-1.07 -2.68,-4.29 -5.36,-10.95 z"
       id="path893" />
    <path
       class="cls-2"
       d="m 370.47,73.301093 v -26 c 0,-10.8 -2,-15 -8.38,-15 -4.52,0 -8,3.86 -8,10.27 v 30.73 h -15.81 v -26 c 0,-11.77 -3.22,-15.08 -7.95,-15.08 -5.7,0 -8.38,4.06 -8.38,10.48 v 30.6 h -16.93 c 0.86,-2.36 1,-5.37 1,-9.57 v -29 c -0.11,-4.08 -0.22,-7.09 -1.07,-9.45 l 16.28,-3.22 0.11,0.21 v 6.77 c 2.14,-4.08 7.41,-6.34 12.56,-6.45 a 23.51,23.51 0 0 1 17.58,8.17 18.4,18.4 0 0 1 15.26,-8.17 20.3,20.3 0 0 1 16.18,7.45 c 3.32,4.29 3.64,10.92 3.64,16 v 17.54 c 0,4.41 0.11,7.42 1,9.78 z"
       id="path895" />
    <path
       class="cls-2"
       d="m 410.16,40.911093 c 0.21,-6.17 4.39,-10 8.47,-10 4.5,0 8.15,3.31 8.15,10 z m 33.67,7.08 c 0.11,-14.74 -9.44,-25.25 -24.13,-25.25 -16,0 -26.92,10.83 -26.92,25.68 0,14.85 12.55,26.4 30.89,26.4 a 38.08,38.08 0 0 0 15.44,-3.11 l 3.54,-11.92 h -0.43 a 28.42,28.42 0 0 1 -15.76,5.15 c -9.23,0 -16.09,-5.37 -16.3,-16.95 z"
       id="path897" />
    <path
       class="cls-2"
       d="m 448.15,73.301093 c 0.86,-2.36 1,-5.37 1,-10.1 v -28.52 c -0.11,-4.08 -0.22,-7.08 -1.08,-9.44 l 16.61,-3.54 h 0.53 v 7.29 c 2.15,-4.07 7.94,-6.64 12.77,-6.43 a 47.41,47.41 0 0 1 5.57,0.64 l -3.35,12.1 a 21.87,21.87 0 0 0 -2.9,-0.85 c -6.75,-1.4 -12.12,1.93 -12.12,13 v 16 c 0,4.52 0.11,7.53 1,9.89 z"
       id="path899" />
    <path
       class="cls-2"
       d="m 496.72,15.521093 a 7.83,7.83 0 0 1 -7.61,-8.1399997 7.58,7.58 0 0 1 7.61,-7.38000002 7.79,7.79 0 0 1 7.92,7.70000002 8,8 0 0 1 -7.92,7.8199997 z m 8.46,6.11 0.54,-0.11 v 42.22 c 0,4.2 0.1,7.21 1,9.57 h -18 c 0.86,-2.36 1,-5.37 1,-9.89 v -29.47 c -0.11,-3.75 -0.22,-6.75 -1.08,-9.11 z"
       id="path901" />
    <path
       class="cls-2"
       d="m 552.5,35.501093 h -0.43 a 18.43,18.43 0 0 0 -10.08,-2.88 c -9.87,0 -13.73,6.74 -13.73,14.33 0,9.2 5.68,17.66 17.37,17.55 a 22.9,22.9 0 0 0 13.09,-4.92 h 0.53 l -3.54,13.09 c -4,1.61 -9,2 -13.94,2 -16.94,0 -30,-10.85 -30,-24.76 0,-18.41 14.78,-27.33 31.3,-27.33 a 48.3,48.3 0 0 1 12.44,1.61 z"
       id="path903" />
    <path
       class="cls-2"
       d="m 588.14,66.011093 c -4.1,0 -8.4,-2.14 -8.4,-7.82 0,-5.35 3.77,-7.06 7.64,-8 3,-0.75 5.82,-0.54 8.08,-0.75 v 13.7 a 10.89,10.89 0 0 1 -7.32,2.87 z m 24.24,7.3 c -0.85,-2.36 -1,-5.37 -1,-9.55 v -24.72 c 0,-13 -9.75,-16.42 -22.42,-16.42 -3.88,0 -8.51,0.43 -15.8,3 l -3.64,11.48 c 5.89,-4.17 13,-5.46 18.9,-5.46 4.41,0 6.89,2.57 7,5.89 v 4.77 l -7.65,0.21 c -9.68,0.32 -23.6,4.93 -23.6,15.63 0,8.35 4.82,16.62 20.48,16.62 1.72,-0.11 7.54,-0.54 11.09,-4.51 v 3.05 z"
       id="path905" />
    <path
       class="cls-2"
       d="m 619.37,73.301093 c 0.86,-2.36 1,-5.37 1,-9.57 v -29 c -0.11,-4 -0.22,-7 -1.08,-9.34 l 16.18,-3.23 h 0.54 v 6.77 c 2.25,-4.08 8.5,-6.34 13.12,-6.34 6.45,0 12.34,1.51 16.62,7.31 3.22,4.29 3.11,10.92 3.11,16 v 17.76 c 0,4.3 0.11,7.31 1,9.67 h -17 v -27.45 c 0,-11.45 -3.87,-13.59 -8.28,-13.59 -4,0 -8.08,2.47 -8.08,10.27 v 30.74 h -17 z"
       id="path907" />
    <path
       class="cls-3"
       d="m 14.03,235.86109 c 242.05,-12.88 450.06,-22.78 699.58,-14.47 l -7.26,18.91 c -253,2.09 -605.82,30.39 -706.35,45 z"
       id="path909" />
  </g>
</svg>
